# xmcd CD database file
#
# Track frame offsets:
#	150
#	18971
#	35879
#	51293
#	67717
#	83885
#	111148
#	141755
#	165142
#	186756
#	206029
#	226350
#	247819
#	264778
#	285544
#
# Disc length: 4121 seconds
#
# Revision: 0
# Processed by: cddbd v1.5.2PL0 Copyright (c) Steve Scherf et al.
# Submitted via: CDex 1.51
#
DISCID=c010170f
DTITLE=Gerry Mulligan and Chet Baker - Reunion/Gerry Mulligan with Chat Baker
DYEAR=1957
DGENRE=Jazz
TTITLE0=Reunion
TTITLE1=When Your Lover Has Gone
TTITLE2=Stardust
TTITLE3=My Heart Belongs to Daddy
TTITLE4=Jersey Bounce
TTITLE5=The Surrey with the Fringe on Top
TTITLE6=Trav'lin' Light
TTITLE7=Trav'lin' LIght alt take
TTITLE8=Ornithology
TTITLE9=People Will Say We're In Love
TTITLE10=The Song Is You
TTITLE11=Gee Baby, Ain't I Good to You
TTITLE12=Gee Baby, Ain't I Good to You alt take
TTITLE13=I Got Rhythm
TTITLE14=All the Things You Are
EXTD=YEAR: 1957
EXTT0=
EXTT1=
EXTT2=
EXTT3=
EXTT4=
EXTT5=
EXTT6=
EXTT7=
EXTT8=
EXTT9=
EXTT10=
EXTT11=
EXTT12=
EXTT13=
EXTT14=
PLAYORDER=
